<svg xmlns="http://www.w3.org/2000/svg" width="152" height="152" viewBox="0 0 152 152">
  <g id="Atom" transform="translate(-424.5 -2118)">
    <circle id="Ellipse_2" data-name="Ellipse 2" cx="76" cy="76" r="76" transform="translate(424.5 2118)" fill="#386f86"/>
    <g id="atom-2" data-name="atom" transform="translate(448.958 2142.438)">
      <path id="Path_180" data-name="Path 180" d="M276.614,222.517c0-6.18-6.333-11.662-16.619-15.535,4.539-10.007,5.141-18.359.771-22.734s-12.727-3.768-22.734.771c-3.867-10.287-9.349-16.619-15.535-16.619s-11.662,6.333-15.535,16.619c-10.007-4.539-18.359-5.141-22.734-.771s-3.768,12.727.771,22.734c-10.287,3.867-16.619,9.349-16.619,15.535S174.713,234.18,185,238.052c-4.539,10.007-5.141,18.359-.771,22.734s12.727,3.768,22.734-.771c3.867,10.287,9.349,16.619,15.535,16.619s11.662-6.333,15.535-16.619c10.007,4.539,18.359,5.141,22.734.771s3.768-12.727-.771-22.734C270.282,234.18,276.614,228.7,276.614,222.517Zm-16.97-37.142c3.9,3.895,3.169,11.682-1.144,21.071a90.814,90.814,0,0,0-16.083-3.844,90.81,90.81,0,0,0-3.844-16.083C247.963,182.206,255.75,181.477,259.645,185.375Zm-17.371,37.142c0,2.754-.082,5.457-.237,8.095q-2.635,2.966-5.559,5.892t-5.881,5.559c-2.638.155-5.341.237-8.095.237s-5.457-.082-8.095-.237q-2.966-2.635-5.892-5.559t-5.559-5.892c-.155-2.638-.237-5.341-.237-8.095s.082-5.457.237-8.1q2.635-2.966,5.559-5.892t5.892-5.559c2.638-.155,5.341-.237,8.095-.237s5.457.082,8.095.237q2.966,2.635,5.892,5.559t5.559,5.892C242.2,217.06,242.274,219.763,242.274,222.517ZM237.6,207.409q-2.217-2.217-4.457-4.265,4.053.319,7.858.864.542,3.8.864,7.858-2.042-2.237-4.254-4.457Zm-6.369-5.988c-2.471-2.183-4.946-4.211-7.4-6.073a90.539,90.539,0,0,1,13.3-8.137,91.025,91.025,0,0,1,3.635,15.162c-3.053-.432-6.236-.757-9.527-.952Zm-2.573-.133q-3.034-.13-6.166-.136t-6.166.136q3.087-2.644,6.166-4.948,3.084,2.3,6.177,4.948Zm-14.9.133c-3.291.2-6.474.52-9.524.938a90.761,90.761,0,0,1,3.644-15.148,90.384,90.384,0,0,1,13.292,8.152c-2.454,1.847-4.929,3.875-7.4,6.059Zm-1.912,1.723q-2.237,2.053-4.457,4.265t-4.265,4.457q.319-4.053.864-7.858,3.81-.542,7.869-.864ZM201.39,213.778c-2.183,2.471-4.211,4.946-6.073,7.4a90.534,90.534,0,0,1-8.12-13.292,90.478,90.478,0,0,1,15.162-3.632c-.432,3.05-.757,6.234-.952,9.524Zm-.133,2.573q-.13,3.033-.136,6.166t.136,6.166q-2.627-3.087-4.932-6.166,2.3-3.07,4.949-6.166Zm.133,14.9c.2,3.291.52,6.474.938,9.527a90.744,90.744,0,0,1-15.131-3.635,90.534,90.534,0,0,1,8.151-13.292c1.847,2.454,3.875,4.929,6.059,7.4Zm1.723,1.912q2.053,2.237,4.265,4.457t4.457,4.265q-4.053-.316-7.858-.864-.525-3.8-.847-7.858Zm10.634,10.451c2.471,2.183,4.946,4.211,7.4,6.073a90.375,90.375,0,0,1-13.292,8.151,90.475,90.475,0,0,1-3.632-15.162c3.067.412,6.251.737,9.541.932Zm2.573.133q3.034.13,6.166.136t6.166-.136q-3.07,2.638-6.149,4.943-3.07-2.3-6.166-4.948Zm14.9-.133c3.291-.2,6.474-.52,9.527-.938a90.745,90.745,0,0,1-3.635,15.162,90.534,90.534,0,0,1-13.292-8.151q3.707-2.8,7.417-6.078Zm1.912-1.723q2.237-2.053,4.457-4.265t4.265-4.457q-.316,4.053-.864,7.858-3.782.537-7.841.859Zm10.451-10.634c2.183-2.471,4.211-4.946,6.073-7.4a90.392,90.392,0,0,1,8.151,13.292,90.462,90.462,0,0,1-15.162,3.632c.429-3.056.754-6.239.949-9.53Zm.133-2.573q.13-3.033.136-6.166t-.136-6.166q2.644,3.087,4.949,6.166-2.294,3.067-4.937,6.16Zm-.133-14.9c-.2-3.291-.52-6.474-.938-9.524a90.754,90.754,0,0,1,15.162,3.632,90.385,90.385,0,0,1-8.151,13.292c-1.85-2.46-3.878-4.934-6.061-7.406Zm-21.085-43.8c5.511,0,10.5,6.019,14.091,15.707a90.921,90.921,0,0,0-14.091,8.663,90.922,90.922,0,0,0-14.091-8.654C212,176.009,216.992,169.982,222.5,169.982Zm-37.142,15.393c3.895-3.9,11.682-3.169,21.071,1.144a90.806,90.806,0,0,0-3.844,16.083,90.813,90.813,0,0,0-16.083,3.844C182.192,197.057,181.463,189.27,185.361,185.375Zm-15.393,37.142c0-5.511,6.019-10.5,15.707-14.091a90.93,90.93,0,0,0,8.663,14.091,90.928,90.928,0,0,0-8.654,14.091C175.995,233.019,169.967,228.028,169.967,222.517Zm15.393,37.142c-3.9-3.895-3.169-11.682,1.144-21.071a90.809,90.809,0,0,0,16.083,3.844,90.809,90.809,0,0,0,3.844,16.083C197.043,262.828,189.256,263.557,185.361,259.659ZM222.5,275.053c-5.511,0-10.5-6.019-14.091-15.707a90.918,90.918,0,0,0,14.091-8.663,90.922,90.922,0,0,0,14.091,8.654C233,269.025,228.013,275.053,222.5,275.053Zm37.142-15.393c-3.895,3.9-11.682,3.169-21.071-1.144a90.809,90.809,0,0,0,3.844-16.083,90.8,90.8,0,0,0,16.083-3.844C262.814,247.977,263.543,255.764,259.645,259.659Zm-.322-23.051a90.927,90.927,0,0,0-8.654-14.091,90.924,90.924,0,0,0,8.654-14.091c9.688,3.59,15.715,8.581,15.715,14.091S269.011,233.019,259.323,236.609Z" transform="translate(-170.955 -170.955)" fill="#f3b603"/>
      <circle id="Ellipse_4" data-name="Ellipse 4" cx="10.398" cy="10.398" r="10.398" transform="translate(36.626 51.846) rotate(-45)" fill="#f19e02"/>
      <path id="Path_181" data-name="Path 181" d="M391.163,235.029a1.982,1.982,0,1,1-1.979-1.979A1.982,1.982,0,0,1,391.163,235.029Z" transform="translate(-328.447 -216.444)" fill="#414042"/>
      <path id="Path_182" data-name="Path 182" d="M274.819,214.707a1.719,1.719,0,1,1-1.719-1.717A1.719,1.719,0,0,1,274.819,214.707Z" transform="translate(-247.284 -203.023)" fill="#414042"/>
      <path id="Path_183" data-name="Path 183" d="M244.862,330.786a1.486,1.486,0,1,1-1.486-1.486A1.486,1.486,0,0,1,244.862,330.786Z" transform="translate(-222.957 -284.546)" fill="#414042"/>
      <path id="Path_184" data-name="Path 184" d="M496.688,437.329a2.159,2.159,0,1,1-2.156-2.159A2.159,2.159,0,0,1,496.688,437.329Z" transform="translate(-403.106 -360.159)" fill="#414042"/>
      <path id="Path_185" data-name="Path 185" d="M220.346,485.59a1.608,1.608,0,1,1-1.608-1.59,1.608,1.608,0,0,1,1.608,1.59Z" transform="translate(-206.081 -398.263)" fill="#414042"/>
      <path id="Path_186" data-name="Path 186" d="M343.485,460a1.733,1.733,0,1,1-1.733-1.733A1.733,1.733,0,0,1,343.485,460Z" transform="translate(-291.116 -380.674)" fill="#414042"/>
      <path id="Path_187" data-name="Path 187" d="M475.222,325.184a1.486,1.486,0,1,1-1.486-1.484A1.486,1.486,0,0,1,475.222,325.184Z" transform="translate(-389.64 -281.755)" fill="#414042"/>
      <path id="Path_188" data-name="Path 188" d="M201.623,396.552a1.362,1.362,0,1,1-1.362-1.362A1.362,1.362,0,0,1,201.623,396.552Z" transform="translate(-194.005 -334.305)" fill="#414042"/>
      <path id="Path_189" data-name="Path 189" d="M409.371,304.873a1.733,1.733,0,1,1-.508-1.226A1.735,1.735,0,0,1,409.371,304.873Z" transform="translate(-340.868 -266.641)" fill="#414042"/>
    </g>
  </g>
</svg>
