<svg xmlns="http://www.w3.org/2000/svg" width="104.994" height="107.956" viewBox="0 0 104.994 107.956">
  <path id="Path_32" data-name="Path 32" d="M111.334,46.764,87.547,28.158l2.6-2.6a1.779,1.779,0,0,0,.516-1.39l-.389-5.222L106.186,3.035A1.778,1.778,0,1,0,103.671.52l-6.12,6.12L94.114,3.2A1.778,1.778,0,0,0,91.6,5.718l3.437,3.437L66.016,38.176a1.761,1.761,0,0,0-.325.04L57.866,40A1.779,1.779,0,0,0,57,40.48L41.468,56.017l-1.146-1.146a1.778,1.778,0,0,0-2.515,2.515l1.146,1.146L27.831,69.654a1.778,1.778,0,0,0,0,2.515l2.124,2.124L7.543,96.7a1.778,1.778,0,0,0,.247,2.721l11.9,8.216a1.779,1.779,0,0,0,2.268-.206L33.279,96.117a1.778,1.778,0,0,0,.436-1.8l-2.66-8.329,6.855-6.855,5.014,7.955a1.778,1.778,0,0,0,2.579.468l4.862-3.689a1.778,1.778,0,0,0,.343-2.491A40.469,40.469,0,0,1,47.6,76.6l3.306-3.306a4.713,4.713,0,0,0,0-6.658l-.248-.248,1.928-1.928,12.3,12.3a1.778,1.778,0,0,0,2.515,0l7.8-7.8a1.778,1.778,0,0,0,0-2.515l-12.3-12.3,8.69-8.691a1.778,1.778,0,0,0,.442-1.782L84.418,31.286l7.9,14.783a1.778,1.778,0,1,0,3.136-1.677l-5.081-9.5,18.765,14.677a1.779,1.779,0,0,0,2.192-2.8ZM87.055,23.62,69.664,41.012l-.727-.727L86.955,22.266ZM27.775,84.241a1.778,1.778,0,0,0-.436,1.8L30,94.368l-9.5,9.5L11.567,97.71,32.442,76.836,33.811,78.2ZM44.9,83.552l-4.41-7,2.2-2.2a25.131,25.131,0,0,0,2.037,4.369c.746,1.309,1.519,2.492,2.112,3.357Zm1.29-17.726-1.174-1.174,16.04-16.04,1.174,1.174Zm2.2,3.322a1.151,1.151,0,0,1,0,1.628l-2.369,2.369a5.692,5.692,0,0,1-.352-1.772L48.146,68.9Zm17.748,3.832-6.12-6.12L65.3,61.578l6.12,6.12ZM62.789,59.063l-5.281,5.281-2.4-2.4,5.281-5.281ZM64.745,47.27l-2.431-2.431a1.778,1.778,0,0,0-2.515,0L41.244,63.394a1.778,1.778,0,0,0,0,2.515l2.431,2.431-7.321,7.321L31.6,70.911,59.157,43.357,65.524,41.9,67.819,44.2Z" transform="translate(-7.022 0)" fill="#fff"/>
</svg>
