<svg xmlns="http://www.w3.org/2000/svg" width="452.7" height="385.373" viewBox="0 0 452.7 385.373">
  <g id="medical" transform="translate(-45.1 -115.627)">
    <path id="Path_191" data-name="Path 191" d="M454.7,417.7,326.9,401.2a8.54,8.54,0,0,1-7.4-9l12.7-145.1c0-25,23-28.7,27.4-28.1l88.8,12.9c32.7,1.6,29.9,34.9,29.5,39.3L463.4,410.8A7.569,7.569,0,0,1,454.7,417.7Z" fill="#173885"/>
    <path id="Path_192" data-name="Path 192" d="M368,227.8s14.8-6.4,10.6-24C374.5,186.1,357.1,201,368,227.8Z" fill="#142585"/>
    <path id="Path_193" data-name="Path 193" d="M335.6,276.5l-29.9,63.1c-1.1,2.3-4.2,2.9-7.3,1.4l-1.9-.9c-5-2.5-8-8.1-6.7-12.1l20.5-57.7s8-21,23.1-11.1C341.1,264.1,335.6,276.5,335.6,276.5Z" fill="#f59493"/>
    <path id="Path_194" data-name="Path 194" d="M353.9,370.3l-37.6-5.1c-8.8-.2-5.9-82.5-5.9-92.9h0c0-10.4,15-20,25.1-23.5l24.3-5.2,35.9,12c6.7,1.9,14.9,23.6,14.9,34l2.9-8.4C413.5,291.5,362.7,370.5,353.9,370.3Z" fill="#385bd6"/>
    <path id="Path_195" data-name="Path 195" d="M348,462.2,45.1,404l156.1-58.3,296.6,46.7-.2,10.5Z" fill="#c2d5ff"/>
    <path id="Path_196" data-name="Path 196" d="M333.4,390.7l-75.2-10.5c-5.1-.8-12.3-.7-16.2.3l-36.6,9.7a5.375,5.375,0,0,0-2,.9l-17.2,4.6c-3.9,1-2.9,2.6,2.2,3.4l75.4,12.6c5.1.8,12.3.7,16.2-.3l50.4-13.9C334.1,396.6,333.4,390.7,333.4,390.7Z" fill="#c0cae3"/>
    <path id="Path_197" data-name="Path 197" d="M328.8,388.8l-75.4-12.6c-5.1-.8-12.3-.7-16.2.3l-36.6,9.7a5.375,5.375,0,0,0-2,.9l-17.2,4.6c-3.9,1-2.9,2.6,2.2,3.4L259,407.7c5.1.8,12.3.7,16.2-.3l55.9-15.2C334.9,391.1,333.9,389.6,328.8,388.8Z" fill="#fff"/>
    <path id="Path_198" data-name="Path 198" d="M415.9,289.3l-33.7,61.1c-1.3,2.3-4.4,2.7-7.4.9l-1.8-1.1c-4.8-2.8-7.5-8.5-5.9-12.5l25.5-59.8s1.5-20.5,22.3-6.1C417.8,273.8,415.9,289.3,415.9,289.3Z" fill="#f59493"/>
    <path id="Path_199" data-name="Path 199" d="M306.3,339.3c-11,16.9-64.2,33.6-64.2,33.6l-14.7-4.8,65.3-47.9Z" fill="#f59493"/>
    <path id="Path_200" data-name="Path 200" d="M364.1,260.2l-.6-1c-5.4.6-24.9,1.4-25.6-4.5,10.1-3.9,6.2-16.5,2.6-35.6-.7-5.9,3.2-11.3,8.6-11.9l1.8-.2c5.4-.6,16.5,4.2,17.2,10.1,3.2,14.7,3.9,28.2,5.9,42.4C374.7,265.5,369.5,259.6,364.1,260.2Z" fill="#f59493"/>
    <path id="Path_201" data-name="Path 201" d="M344.1,240.4l.4,6.1a32.682,32.682,0,0,0,16-15.5l3-4.2Z" fill="#d67474"/>
    <path id="Path_202" data-name="Path 202" d="M341.5,244.1l-7.1,4.5s-3.8,12.6,2.5,18l15.9-7.3s-9.4-3.7-8.5-13.6A1.829,1.829,0,0,0,341.5,244.1Z" fill="#4a74ff"/>
    <path id="Path_203" data-name="Path 203" d="M376.6,242.4l6.3,6.6s-8.6,16.3-18.4,21.6l-13.3-10.8s14.8-7.5,20.9-17.4C373,241,375.5,241.1,376.6,242.4Z" fill="#4a74ff"/>
    <path id="Path_204" data-name="Path 204" d="M335.9,171.8s-25.8,1.2-20.5,22.8c4.9,19.9,23.7,12.4,23.7,12.4Z" fill="#142585"/>
    <path id="Path_205" data-name="Path 205" d="M324.3,220.1l-.5-25.3c-.4-14.1,9.6-17.4,22.5-17.7l1.1-1.4c12.8-.3,24,5.5,24.3,19.6L367,221.6C367.2,232.9,328.2,260.9,324.3,220.1Z" fill="#f59493"/>
    <path id="Path_206" data-name="Path 206" d="M346.6,211.9c0,1.4.9,2.5,1.8,2.4,1,0,1.7-1.2,1.7-2.5,0-1.4-.9-2.5-1.8-2.4C347.3,209.4,346.6,210.5,346.6,211.9Z" fill="#122175"/>
    <path id="Path_207" data-name="Path 207" d="M329.2,211.7c0,1.3.6,2.4,1.2,2.4s1.1-1.1,1-2.4c0-1.3-.6-2.4-1.2-2.4S329.2,210.4,329.2,211.7Z" fill="#122175"/>
    <path id="Path_208" data-name="Path 208" d="M352.5,203.3a32.8,32.8,0,0,0-7,.2c-2.1.2-2.2-2-.2-2.2a12.566,12.566,0,0,1,7.4.7C353.2,202.1,353.3,203.4,352.5,203.3Z" fill="#122175"/>
    <path id="Path_209" data-name="Path 209" d="M327.1,203.7a19.274,19.274,0,0,1,4.8,0c1.4.2,1.3-2,0-2.2a5.988,5.988,0,0,0-5,.9C326.5,202.6,326.6,203.9,327.1,203.7Z" fill="#122175"/>
    <path id="Path_210" data-name="Path 210" d="M374.8,211.6c-1.1,4.1-4,6.6-6.6,5.6-2.6-1.1-3.8-5.3-2.7-9.4s4-6.6,6.6-5.6C374.6,203.2,375.9,207.4,374.8,211.6Z" fill="#f59493"/>
    <g id="Group_17" data-name="Group 17">
      <path id="Path_211" data-name="Path 211" d="M339.8,223.1a4.253,4.253,0,0,1-3.5-1.4,3.154,3.154,0,0,1-.4-2.6c.3-.8,1-4.9,1.3-6.4.1-.3.4-.6.7-.5s.6.4.5.7c-.1.6-1,5.5-1.3,6.6a2.053,2.053,0,0,0,.2,1.5,2.913,2.913,0,0,0,2.5.9h0a.645.645,0,0,1,.6.6c.1.4-.2.6-.6.6Z" fill="#d67474"/>
    </g>
    <path id="Path_212" data-name="Path 212" d="M380.6,205.2s-51.1,6-46.9-28.7C335.7,159.7,383.3,157.3,380.6,205.2Z" fill="#142585"/>
    <path id="Path_213" data-name="Path 213" d="M332.9,226.8l12.8.1c-1.7,5.6-5.4,6-7.9,5.8C334,232.4,332.9,226.8,332.9,226.8Z" fill="#fff"/>
    <path id="Path_214" data-name="Path 214" d="M317.3,253.1s-23.6,2.9-30,71.1l-32,18.9c9.8,6,14,14,8.8,25.3,0,0,36.7-14.8,42.2-24.2,5.5-9.5,16.3-46.4,16.3-46.4Z" fill="#e6eeff"/>
    <path id="Path_215" data-name="Path 215" d="M317.3,253.1a135.7,135.7,0,0,0,17.1-4.4c-4.2,6.8-19,85.4-16.9,115.7l-15-2.8,6.2-78.7Z" fill="#e6eeff"/>
    <path id="Path_216" data-name="Path 216" d="M384,249.1s-16.8,3.4-26.9,49.9c-7,32.2-5.6,70.6-5.6,70.6l53.3,8.1s14.9-73,13.6-95.6c0-.4-.1-.8-.1-1.2-1.2-13.8-3.2-17.8-20.6-25.3Z" fill="#e6eeff"/>
    <path id="Path_217" data-name="Path 217" d="M351.7,266.7a2.2,2.2,0,1,1-2.2-2.2A2.22,2.22,0,0,1,351.7,266.7Z" fill="#183180"/>
    <path id="Path_218" data-name="Path 218" d="M349.5,274.4a2.2,2.2,0,1,1-2.2-2.2A2.22,2.22,0,0,1,349.5,274.4Z" fill="#183180"/>
    <path id="Path_219" data-name="Path 219" d="M45.1,404l2,96.8,300.8.2.1-38.8Z" fill="#99b2e8"/>
    <path id="Path_220" data-name="Path 220" d="M347.9,501l138.9-.2a10.968,10.968,0,0,0,11-11V403.4L348,462.2Z" fill="#8ea3d4"/>
    <path id="Path_221" data-name="Path 221" d="M323.7,364.4s-4.2,4.8-1.3,10c3.9,7.1,7.2,13.9,14.2,11.8,7.1-2.2-3.1-21.8-3.1-21.8Z" fill="#c9e4ff"/>
    <g id="Group_18" data-name="Group 18">
      <path id="Path_222" data-name="Path 222" d="M310.5,370.8l-22,3.4a4.065,4.065,0,0,0-1.9.8c-2.4,1.8-9.3,7.3-16.7,13.1-.9.7-1.5,4.7,2.2,2.6a5.154,5.154,0,0,0-1.2,5.7c.2.4.3.9.5,1.3a4.29,4.29,0,0,0,5.8,2.7c6.7-3.3,19.8-9.6,22.5-9.4,8.3.7,15.4-4.5,16.7-5.4,0,0,4.3-4.6,2.3-9.7l-.1-.3C317.1,372.2,313.7,370.2,310.5,370.8Z" fill="#f59493"/>
      <line id="Line_1" data-name="Line 1" x1="18.3" y2="12.5" transform="translate(272 378.2)" fill="none" stroke="#e38a78" stroke-linecap="round" stroke-linejoin="round" stroke-miterlimit="10" stroke-width="0.83"/>
      <line id="Line_2" data-name="Line 2" x1="18.4" y2="12.5" transform="translate(271.1 384.3)" fill="none" stroke="#e38a78" stroke-linecap="round" stroke-linejoin="round" stroke-miterlimit="10" stroke-width="0.83"/>
      <line id="Line_3" data-name="Line 3" x1="16.8" y2="10" transform="translate(273.8 389.3)" fill="none" stroke="#e38a78" stroke-linecap="round" stroke-linejoin="round" stroke-miterlimit="10" stroke-width="0.83"/>
    </g>
    <path id="Path_223" data-name="Path 223" d="M381,363.6c-14.6,14.5-67.9,23.1-67.9,23.1l-9.5-12.4,57.2-21.5Z" fill="#f59493"/>
    <path id="Path_224" data-name="Path 224" d="M402.9,259.9l-30.5,81.8-48.7,22.7s18.3,3.1,13,21.8c0,0,48.2-17,53.5-21.3S413,311.6,413,311.6s8.6-26.9,5.4-36.5A19.945,19.945,0,0,0,402.9,259.9Z" fill="#e6eeff"/>
    <path id="Path_225" data-name="Path 225" d="M385.5,297.1v4.4l-12.9,39.2-48.9,23.7" fill="none" stroke="#9eb9db" stroke-linecap="round" stroke-linejoin="round" stroke-miterlimit="10" stroke-width="1"/>
    <path id="Path_226" data-name="Path 226" d="M303.7,346.6l3.6-49.7-2.6-7.7" fill="none" stroke="#9eb9db" stroke-linecap="round" stroke-linejoin="round" stroke-miterlimit="10" stroke-width="1"/>
    <g id="Group_19" data-name="Group 19">
      <path id="Path_227" data-name="Path 227" d="M265.8,412.2l-83.7-13.5c-5.6-.9-11.9-6.7-14.1-12.9l-20.4-58.9c-2.1-6.2.7-10.6,6.3-9.6l83.7,13.5c5.6.9,11.9,6.7,14.1,12.9l20.4,58.9C274.2,408.7,271.4,413.1,265.8,412.2Z" fill="#fff"/>
      <path id="Path_228" data-name="Path 228" d="M261.6,411.5,178,398c-5.6-.9-11.9-6.7-14.1-12.9l-20.4-58.9c-2.1-6.2.7-10.6,6.3-9.6l83.7,13.5c5.6.9,11.9,6.7,14.1,12.9L268,401.9C270.1,408.1,267.3,412.4,261.6,411.5Z" fill="#d8e3ff"/>
      <path id="Path_229" data-name="Path 229" d="M209.3,364.6c1.4,4.9-1.1,8.3-5.6,7.6s-9.3-5.3-10.7-10.2,1.1-8.3,5.6-7.6S207.9,359.7,209.3,364.6Z" fill="none" stroke="#fff" stroke-linecap="round" stroke-linejoin="round" stroke-miterlimit="10" stroke-width="1.564"/>
    </g>
    <path id="Path_230" data-name="Path 230" d="M302.5,425.5,361,398.7l55.9,8.6-47.1,29.3Z" fill="#99b2e8"/>
    <path id="Path_231" data-name="Path 231" d="M287.3,324.3s3.8-.5,4.4.9" fill="none" stroke="#9eb9db" stroke-linecap="round" stroke-linejoin="round" stroke-miterlimit="10" stroke-width="1"/>
    <path id="Path_232" data-name="Path 232" d="M371.9,341.3s3.8-.5,4.4.9" fill="none" stroke="#9eb9db" stroke-linecap="round" stroke-linejoin="round" stroke-miterlimit="10" stroke-width="1"/>
    <path id="Path_233" data-name="Path 233" d="M302.5,423.4,361,396.6l55.9,8.5-47.1,29.4Z" fill="#a3bef7"/>
    <path id="Path_234" data-name="Path 234" d="M302.5,420.7,361,393.9l55.9,8.6-47.1,29.3Z" fill="#fff"/>
    <g id="Group_22" data-name="Group 22">
      <g id="Group_20" data-name="Group 20">
        <path id="Path_235" data-name="Path 235" d="M372.8,241.4s14.1.9,12,11.7c-.6,3.2-.7,6.2-1.7,9.3-2,6.2-1.4,12.7-2.3,19.1" fill="none" stroke="#142585" stroke-linecap="round" stroke-linejoin="round" stroke-miterlimit="10" stroke-width="2"/>
      </g>
      <g id="Group_21" data-name="Group 21">
        <path id="Path_236" data-name="Path 236" d="M382.9,259.9c-5.3,5.1-11.3,7.5-12.3,15.8" fill="none" stroke="#142585" stroke-linecap="round" stroke-linejoin="round" stroke-miterlimit="10" stroke-width="2"/>
      </g>
      <path id="Path_237" data-name="Path 237" d="M377.5,283.8l-11.8,19.4c-2.7,4.1-4.6,6.2-9.8,3.2a24.036,24.036,0,0,0-1.1,2.3l.8.5a8.1,8.1,0,0,0,11.1-2.7l14.1-23.2C383.2,279.4,379.8,280.1,377.5,283.8Z" fill="#c0cae3"/>
      <path id="Path_238" data-name="Path 238" d="M353.5,304.9l2.9,1.3a1.682,1.682,0,0,1,.8,2.2l-.2.4a1.682,1.682,0,0,1-2.2.8l-2.9-1.3a1.682,1.682,0,0,1-.8-2.2l.2-.4A1.65,1.65,0,0,1,353.5,304.9Z" fill="#0f1b61"/>
      <path id="Path_239" data-name="Path 239" d="M370.7,280.2l-2.5,22.5c-.4,4.9-.2,7.7,5.8,8.5-.2.8-.3,1.7-.5,2.5l-.9-.1a8.15,8.15,0,0,1-7.2-8.9l3-27C368.9,273.2,371.2,275.8,370.7,280.2Z" fill="#c0cae3"/>
      <path id="Path_240" data-name="Path 240" d="M376.9,311.5l-3.1-.7a1.717,1.717,0,0,0-2,1.2l-.1.5a1.717,1.717,0,0,0,1.2,2l3.1.7a1.717,1.717,0,0,0,2-1.2l.1-.5A1.566,1.566,0,0,0,376.9,311.5Z" fill="#0f1b61"/>
      <path id="Path_241" data-name="Path 241" d="M379.4,282.6l1.5.6a1.6,1.6,0,0,0,2-.8l.3-.8a1.6,1.6,0,0,0-.8-2L381,279a1.6,1.6,0,0,0-2,.8l-.3.8A1.468,1.468,0,0,0,379.4,282.6Z" fill="#0f1b61"/>
      <path id="Path_242" data-name="Path 242" d="M368.8,278.4l1.6.3a1.557,1.557,0,0,0,1.8-1.2l.2-.9a1.557,1.557,0,0,0-1.2-1.8l-1.6-.3a1.557,1.557,0,0,0-1.8,1.2l-.2.9A1.645,1.645,0,0,0,368.8,278.4Z" fill="#0f1b61"/>
    </g>
    <g id="Group_25" data-name="Group 25">
      <g id="Group_23" data-name="Group 23">
        <path id="Path_243" data-name="Path 243" d="M321.5,292.8c0,1.4,2.6,1.6,2.5.2h0c-.2-9.4-1.3-18.8-.8-28.2.3-6.2,1.3-13.6,9-15.7" fill="none" stroke="#142585" stroke-linecap="round" stroke-linejoin="round" stroke-miterlimit="10" stroke-width="2"/>
      </g>
      <g id="Group_24" data-name="Group 24">
        <path id="Path_244" data-name="Path 244" d="M317.9,294.5a6.738,6.738,0,1,0,8.4-4.5A6.643,6.643,0,0,0,317.9,294.5Z" fill="#0f1b61"/>
        <path id="Path_245" data-name="Path 245" d="M319.4,293.5a5.158,5.158,0,1,0,6.4-3.5A5.2,5.2,0,0,0,319.4,293.5Z" fill="#fbfbff"/>
        <path id="Path_246" data-name="Path 246" d="M319.5,291.4a5.158,5.158,0,1,0,6.4-3.5A5.2,5.2,0,0,0,319.5,291.4Z" fill="#0f1b61"/>
      </g>
    </g>
    <path id="Path_247" data-name="Path 247" d="M383.7,411.7,354,418.5a1.387,1.387,0,0,1-.9,0l-2.5-.3c-.3,0-.4-.5-.2-.7l2.1-1.4a1.135,1.135,0,0,1,.8-.3L383,409a1.453,1.453,0,0,1,1.7,1h0A1.27,1.27,0,0,1,383.7,411.7Z" fill="#142585"/>
    <path id="Path_248" data-name="Path 248" d="M331,218.8h-5a3.329,3.329,0,0,1-3.3-3.3v-.8a3.329,3.329,0,0,1,3.3-3.3h5a3.189,3.189,0,0,1,2.7,1.4,3.456,3.456,0,0,1,.7,2v.8A3.476,3.476,0,0,1,331,218.8Z" fill="none" stroke="#142585" stroke-linecap="round" stroke-linejoin="round" stroke-miterlimit="10" stroke-width="1"/>
    <path id="Path_249" data-name="Path 249" d="M350.4,218.8h-6.8a3.757,3.757,0,0,1-3.7-3.7V215a3.757,3.757,0,0,1,3.7-3.7h6.8a3.757,3.757,0,0,1,3.7,3.7v.1A3.757,3.757,0,0,1,350.4,218.8Z" fill="none" stroke="#142585" stroke-linecap="round" stroke-linejoin="round" stroke-miterlimit="10" stroke-width="1"/>
    <path id="Path_250" data-name="Path 250" d="M333.8,212.3s3-3.1,7.1,0" fill="none" stroke="#142585" stroke-linecap="round" stroke-linejoin="round" stroke-miterlimit="10" stroke-width="1"/>
    <line id="Line_4" data-name="Line 4" x1="15.3" y2="6.1" transform="translate(353.1 205.8)" fill="none" stroke="#142585" stroke-linecap="round" stroke-linejoin="round" stroke-miterlimit="10" stroke-width="1"/>
    <ellipse id="Ellipse_5" data-name="Ellipse 5" cx="13" cy="19.1" rx="13" ry="19.1" transform="matrix(0.809, -0.587, 0.587, 0.809, 175.645, 355.49)" fill="#1adbcf"/>
    <path id="Path_251" data-name="Path 251" d="M200.3,372.6h0a4.935,4.935,0,0,1-3.4-3.2l-4.4-13.1c-.5-1.5.2-2.6,1.6-2.3h0a4.935,4.935,0,0,1,3.4,3.2l4.4,13.1C202.4,371.8,201.7,372.9,200.3,372.6Z" fill="#f0f5ff"/>
    <path id="Path_252" data-name="Path 252" d="M188.8,361.8h0c-.5-1.5.2-2.6,1.6-2.3l11.7,2.1a4.935,4.935,0,0,1,3.4,3.2h0c.5,1.5-.2,2.6-1.6,2.3L192.2,365A5.345,5.345,0,0,1,188.8,361.8Z" fill="#f0f5ff"/>
    <g id="Group_26" data-name="Group 26" opacity="0.28">
      <path id="Path_253" data-name="Path 253" d="M416.2,162.8a2.6,2.6,0,1,1-2.6-2.6A2.646,2.646,0,0,1,416.2,162.8Z" fill="#fff"/>
      <path id="Path_254" data-name="Path 254" d="M443.1,162.8a2.6,2.6,0,1,1-2.6-2.6A2.718,2.718,0,0,1,443.1,162.8Z" fill="#fff"/>
      <path id="Path_255" data-name="Path 255" d="M469.9,162.8a2.6,2.6,0,1,1-2.6-2.6A2.646,2.646,0,0,1,469.9,162.8Z" fill="#fff"/>
      <path id="Path_256" data-name="Path 256" d="M416.2,182.6a2.6,2.6,0,1,1-2.6-2.6A2.582,2.582,0,0,1,416.2,182.6Z" fill="#fff"/>
      <path id="Path_257" data-name="Path 257" d="M443.1,182.6a2.6,2.6,0,1,1-2.6-2.6A2.647,2.647,0,0,1,443.1,182.6Z" fill="#fff"/>
      <path id="Path_258" data-name="Path 258" d="M469.9,182.6a2.6,2.6,0,1,1-2.6-2.6A2.582,2.582,0,0,1,469.9,182.6Z" fill="#fff"/>
      <path id="Path_259" data-name="Path 259" d="M416.2,202.4a2.6,2.6,0,1,1-5.2,0,2.522,2.522,0,0,1,2.6-2.6A2.582,2.582,0,0,1,416.2,202.4Z" fill="#fff"/>
      <path id="Path_260" data-name="Path 260" d="M443.1,202.4a2.6,2.6,0,0,1-5.2,0,2.522,2.522,0,0,1,2.6-2.6A2.647,2.647,0,0,1,443.1,202.4Z" fill="#fff"/>
      <path id="Path_261" data-name="Path 261" d="M469.9,202.4a2.6,2.6,0,1,1-5.2,0,2.522,2.522,0,0,1,2.6-2.6A2.582,2.582,0,0,1,469.9,202.4Z" fill="#fff"/>
    </g>
    <path id="Path_262" data-name="Path 262" d="M233,267.8h36.2" fill="none" stroke="#fff" stroke-linecap="round" stroke-linejoin="round" stroke-miterlimit="10" stroke-width="0.946"/>
    <path id="Path_263" data-name="Path 263" d="M425,116.1h36.2" fill="none" stroke="#fff" stroke-linecap="round" stroke-linejoin="round" stroke-miterlimit="10" stroke-width="0.946"/>
  </g>
</svg>
