<?xml version="1.0" encoding="iso-8859-1"?>
<!-- Generator: Adobe Illustrator 19.0.0, SVG Export Plug-In . SVG Version: 6.00 Build 0)  -->
<svg xmlns="http://www.w3.org/2000/svg" xmlns:xlink="http://www.w3.org/1999/xlink" version="1.1" id="Layer_1" x="0px" y="0px" viewBox="0 0 511.999 511.999" style="enable-background:new 0 0 511.999 511.999;" xml:space="preserve">
<path style="fill:#FF5E48;" d="M335.387,137.124c5.54-19.768-11.071-11.638-14.297-9.904L73.078,264.786  c-80.141,44.457-88.373,157.762-15.64,213.447c71.829,54.845,176.844,19.629,201.085-66.881l76.862-274.223  C335.385,137.126,335.385,137.126,335.387,137.124z"/>
<path style="fill:#CE4542;" d="M135.597,290.652l185.614-102.955l14.173-50.569c0-0.003,0-0.003,0.002-0.005  c5.54-19.768-11.071-11.638-14.297-9.904L73.078,264.786c-28.609,15.87-50.857,41.964-60.827,77.539  c-20.843,74.361,28.613,151.238,106.898,161.164C49.242,451.578,53.598,336.141,135.597,290.652z"/>
<path style="fill:#FF5E48;" d="M503.85,257.038c3.351-11.955-6.694-7.036-8.646-5.989l-149.986,83.193  c-48.857,27.098-53.156,95.831-9.457,129.082c23.682,18.083,56.752,21.561,84.482,6.179c19.468-10.8,31.761-27.489,37.125-46.625  l46.481-165.834C503.85,257.04,503.85,257.04,503.85,257.038z"/>
<path style="fill:#CE4542;" d="M397.23,359.906l92.11-51.091l14.512-51.773c0-0.002,0-0.002,0-0.004  c3.351-11.955-6.694-7.036-8.646-5.989L345.22,334.241c-48.857,27.098-53.156,95.831-9.457,129.082  c12,9.163,26.412,14.568,41.316,15.677C344.593,442.337,353.567,384.123,397.23,359.906z"/>
<path style="fill:#FF5E48;" d="M219.438,13.383c2.518-8.983-5.028-5.288-6.494-4.499L100.247,71.393  c-36.323,20.147-39.951,71.301-7.794,96.47c32.349,25.481,80.851,10.112,92.061-29.87l34.924-124.605  C219.438,13.385,219.438,13.385,219.438,13.383z"/>
<path style="fill:#CE4542;" d="M141.254,99.062l64.142-35.577l14.041-50.097c0-0.003,0-0.003,0-0.005  c2.518-8.983-5.028-5.288-6.494-4.499L100.247,71.393c-47.539,26.368-35.716,99.741,19.367,108.252  C103.19,151.996,112.077,115.246,141.254,99.062z"/>
<path style="fill:#8C614B;" d="M194.242,255.081c-16.823,0-32.606,7.938-41.412,18.358c-8.904,10.631-22.222,10.406-22.222,10.406  l0.022,0.019c-50.244,1.909-90.395,43.22-90.395,93.932c0,51.929,42.095,94.025,94.024,94.025  c54.777,0,97.826-46.607,93.754-100.979c0.631-15.982,9.056-23.716,11.514-27.106c0.029-0.027,0.047-0.044,0.047-0.044h-0.014  C266.11,306.993,239.945,255.081,194.242,255.081z"/>
<path style="fill:#725346;" d="M188.091,311.889l-0.022-0.018c0,0,13.317,0.225,22.222-10.406  c6.87-8.128,19.196-15.582,32.785-17.69c-19.579-35.061-67.492-37.258-90.246-10.335c-8.904,10.631-22.222,10.406-22.222,10.406  l0.022,0.019c-50.244,1.909-90.395,43.22-90.395,93.932c0,48.545,36.789,88.493,84.007,93.494  C67.746,413.069,106.963,314.972,188.091,311.889z"/>
<circle style="fill:#54423C;" cx="126.132" cy="339.2" r="19.053"/>
<path style="fill:#423734;" d="M107.073,339.199c0,5.715,2.528,10.828,6.514,14.321c7.119-10.61,16.342-19.689,27.074-26.641  C129.27,313.454,107.073,321.424,107.073,339.199z"/>
<circle style="fill:#44170E;" cx="177.892" cy="376.687" r="10.58"/>
<path style="fill:#54423C;" d="M95.619,397.476c-19.386,0-35.698,13.13-40.55,30.979c14.84,23.15,39.536,39.359,68.181,42.702  C152.308,445.765,134.473,397.476,95.619,397.476z"/>
<path style="fill:#423734;" d="M98.062,397.552c-20.315-1.177-37.911,12.201-42.994,30.902  c14.979,23.368,39.78,39.381,68.181,42.702c0.158-0.138,0.307-0.286,0.463-0.426C105.673,451.836,95.611,425.639,98.062,397.552z"/>
<circle style="fill:#8C614B;" cx="380.978" cy="403.621" r="43.238"/>
<path style="fill:#725346;" d="M407.369,369.376c-28.293-21.839-69.631-1.632-69.631,34.24c0,26.759,24.161,47.312,50.856,42.559  C358.927,423.278,370.55,375.922,407.369,369.376z"/>
<path style="fill:#8C614B;" d="M153.752,121.197c0,13.304-10.788,24.095-24.094,24.095s-24.094-10.791-24.094-24.095  c0-13.305,10.788-24.096,24.094-24.096C142.964,97.101,153.752,107.893,153.752,121.197z"/>
<path style="fill:#725346;" d="M141.705,100.334c-15.983-9.249-36.141,2.296-36.141,20.864c0,18.595,20.174,30.103,36.141,20.863  C125.654,132.768,125.659,109.622,141.705,100.334z"/>
<circle style="fill:#44170E;" cx="392.35" cy="408.052" r="10.58"/>
<path style="fill:#423734;" d="M337.781,401.906c12.634,6.891,28.176-2.253,28.176-16.737c0-7.259-4.058-13.566-10.026-16.785  C345.358,375.911,338.321,388.07,337.781,401.906z"/>
<path d="M194.242,247.58c-19.003,0-37.027,9.052-47.163,21.044c-6.391,7.63-16,7.721-16.344,7.722  c-0.336-0.008-0.652,0.011-0.972,0.047c-78.581,3.43-122.808,90.884-81.009,156.112c43.422,67.739,144.398,60.223,177.779-12.309  c1.732-3.764,0.085-8.218-3.679-9.951c-3.77-1.73-8.219-0.085-9.951,3.679c-13.49,29.315-42.371,48.685-74.374,50.277  c19.036-33.046-5.007-74.225-42.91-74.225c-16.706,0-31.929,8.431-40.968,21.705c-23.525-55.064,14.9-117.988,76.265-120.32  c10.186-0.361,20.674-4.756,27.635-13.068c29.435-32.379,84.097-11.479,84.097,32.697c0,12.919-5.1,24.485-12.967,32.928  c-1.293,1.389-8.578,11.815-9.163,26.63c-0.044,1.114,1.026,9.697-0.873,21.319c-0.669,4.089,2.103,7.944,6.192,8.613  c4.102,0.673,7.945-2.105,8.613-6.192c3.509-21.462-2.271-27.012,6.633-40.603C278.354,312.863,248.836,247.58,194.242,247.58z   M95.618,404.978c30.329,0,45.745,36.412,25.061,58.258c-23.344-3.673-43.96-16.806-57.353-35.954  C68.348,414,81.188,404.978,95.618,404.978z"/>
<path d="M99.571,339.199c0,14.645,11.915,26.559,26.561,26.559s26.56-11.914,26.56-26.559c0-14.647-11.914-26.562-26.56-26.562  S99.571,324.553,99.571,339.199z M137.688,339.199c0,6.372-5.185,11.556-11.557,11.556c-6.373,0-11.558-5.184-11.558-11.556  c0-6.373,5.185-11.559,11.558-11.559C132.504,327.641,137.688,332.826,137.688,339.199z"/>
<circle cx="177.892" cy="376.687" r="10.58"/>
<path d="M308.68,232.404c-3.991-1.118-8.13,1.209-9.248,5.198L251.3,409.328c-8.29,29.589-27.417,55.715-57.802,72.561  c-41.84,23.206-93.46,19.434-131.499-9.612c-2.98-2.279-0.392-0.248-2.783-2.199c-65.94-53.93-56.312-157.786,17.501-198.731  C341.099,124.7,325.615,133.029,328.853,132.026c-0.299,1.937,1.017-3.023-22.919,82.379c-1.118,3.989,1.209,8.129,5.198,9.248  c3.993,1.116,8.129-1.209,9.248-5.198l22.203-79.216c5.487-18.289-5.952-28.89-25.132-18.577L69.437,258.226  c-84.013,46.607-93.181,163.386-19.71,223.475c0.542,0.442,0.917,0.782,1.546,1.275c42.513,33.513,101.512,38.65,149.499,12.033  c34.123-18.917,55.675-48.449,64.973-81.633l48.133-171.725C314.996,237.663,312.669,233.522,308.68,232.404z"/>
<path d="M491.657,244.439c-0.148,0.081-149.929,83.16-150.077,83.243c-54,29.951-57.991,105.927-10.371,141.603  c47.798,36.497,117.354,12.802,133.382-44.384c0.027-0.095,46.493-165.875,46.518-165.972  C515.071,244.556,504.772,237.4,491.657,244.439z M450.146,420.852c-12.773,45.573-68.448,67.5-110.28,36.173  c-38.174-28.421-35.932-91.307,8.991-116.224l146.502-81.259L450.146,420.852z"/>
<path d="M129.657,152.794c17.422,0,31.596-14.175,31.596-31.597c0-17.423-14.174-31.598-31.596-31.598s-31.596,14.175-31.596,31.598  C98.062,138.619,112.236,152.794,129.657,152.794z M129.657,104.603c9.15,0,16.593,7.444,16.593,16.595s-7.443,16.594-16.593,16.594  c-9.15,0-16.593-7.443-16.593-16.594S120.508,104.603,129.657,104.603z"/>
<path d="M128.44,187.82c28.517,0,55.076-18.482,63.296-47.801c0.04-0.142,34.93-124.623,34.967-124.765  c3.303-12.078-5.744-19.2-17.399-12.928L96.608,64.834c-15.654,8.682-26.786,24.018-30.118,35.822l-1.105,3.944  C53.698,146.294,84.967,187.82,128.44,187.82z M103.884,77.954l106.172-58.89l-32.767,116.906  c-9.583,34.183-51.706,48.832-80.752,25.54C68.836,138.852,72.85,95.166,103.884,77.954z"/>
<circle cx="392.35" cy="408.052" r="10.579"/>
<path d="M380.978,454.359c27.979,0,50.741-22.763,50.741-50.742c0-41.144-46.686-65.176-80.14-41.344  C311.25,390.994,332.172,454.359,380.978,454.359z M356.019,378.072c6.149,7.898-0.026,19.427-10.1,18.612  C347.311,389.673,350.766,383.205,356.019,378.072z M416.716,403.617c0,19.706-16.032,35.739-35.738,35.739  c-16.925,0-31.129-11.83-34.805-27.653c21.754,0.598,34.89-23.867,22.561-41.662C392.049,361.513,416.716,378.925,416.716,403.617z"/>
<g>
</g>
<g>
</g>
<g>
</g>
<g>
</g>
<g>
</g>
<g>
</g>
<g>
</g>
<g>
</g>
<g>
</g>
<g>
</g>
<g>
</g>
<g>
</g>
<g>
</g>
<g>
</g>
<g>
</g>
</svg>
