<svg xmlns="http://www.w3.org/2000/svg" width="422" height="422" viewBox="0 0 422 422">
  <g id="مخطوطة_محمد_صلى_الله_عليه_وسلم" transform="translate(-39 -39)">
    <circle id="Ellipse_3" data-name="Ellipse 3" cx="210.5" cy="210.5" r="210.5" transform="translate(39.5 39.5)" fill="#fffbe6" stroke="#f15a24" stroke-miterlimit="10" stroke-width="1"/>
    <g id="Group_14" data-name="Group 14">
      <path id="Path_109" data-name="Path 109" d="M419.609,223.785c-.146-11.164,4.729-29.718,12.673-39.585-2.934,10.407-8.414,27.692-7.676,31.907-.062,12.979,8,14.2,13.056,2.5.521-1.224,1.314-1.646,1.349-.4C437.354,239.3,420.256,245.878,419.609,223.785Z" fill="#0c697b"/>
      <path id="Path_110" data-name="Path 110" d="M424.935,323.5c-.9.782-1.471,1.149-1.732,1.149,2.489-3.223,7.392-8.769,6.727-10.176.062-2.216-3.159-1.726-4.229-.582l-.383-.184C429.83,299.762,438.834,314.923,424.935,323.5Z" fill="#ec5b1a"/>
      <path id="Path_111" data-name="Path 111" d="M400.775,152.877c-.3-3.285,5.357-12.551,8.26-12.107-1.411,1.841-5.575,6.57-5.578,9.027,3.81-2.906,6.255,2.493,3.279,5C404.63,157.121,400.545,156.471,400.775,152.877Z" fill="#eb9f16"/>
      <path id="Path_112" data-name="Path 112" d="M381.65,241.654c-2.554,4.109-7.6,9.154-12,11.141,4.185-5.148,12.453-14.541,11.34-16.137.3-4.5-5.43-3.625-7.309-1.532l-.383-.383C376.487,217.244,392.221,228.121,381.65,241.654Z" fill="#eb9f16"/>
      <path id="Path_113" data-name="Path 113" d="M360.808,363.272a21.363,21.363,0,0,1,1.027-6.5l3.954.874c.743,14.586,33.329,4.542,44.212,2.176l.2.2C402.092,371.784,365.228,385.285,360.808,363.272Z" fill="#ec5b1a"/>
      <path id="Path_114" data-name="Path 114" d="M361.835,356.775c1.136-8.043,23.126-27.995,21.454-27.492-5.038-4.081-14.157-4.28-20.565-1.35-3.779.682,4.044-9.793,4.428-9.423,18.9-7.35,34.443,2.129,14.788,20.381-2.634,3.07-15.893,14.587-16.151,18.759Z" fill="#ec5b1a"/>
      <path id="Path_115" data-name="Path 115" d="M331.215,412.5c-.3-3.4,4.806-10.731,7.494-12.306,2.349-.3-5.9,7.377-5,9.425,3.891-2.945,6.221,2.444,3.264,5C334.74,417.018,331.009,416.1,331.215,412.5Z" fill="#eb9f16"/>
      <path id="Path_116" data-name="Path 116" d="M307.853,81.019c-.217-3.439,4.994-11.834,8.076-12.306-.948,2.184-5.73,6.506-5.578,9.226C321.418,74.651,309.816,91.516,307.853,81.019Z" fill="#eb9f16"/>
      <path id="Path_117" data-name="Path 117" d="M344.088,103.117q0,2.874,9.409,7.295C357.038,100.91,349.784,94.438,344.088,103.117Zm-28.627,49.76q-2.115.966-22.1,8.459c-2.559.67-3.947,1.77-4.812.767,15.126-11.349,49.122-27.731,60.15-40.734-36.733-16.787,27.238-58.451,9.409-8.459q5.953,3.471,7.494,5.762,0,3.287-5.379,10.773c-.889-1.67-3.264-3.586-7.111-5.777C344.911,135.614,327.774,147.455,315.461,152.877Z" fill="#ec5b1a"/>
      <path id="Path_118" data-name="Path 118" d="M289.716,192.845c-5.87-11.612-9.64-17.083-5.2-25.746,1.778-2.534,2.148-3.111,2.5.383.476,8.721,8.121,17.518,6.253,25.807Z" fill="#ec5b1a"/>
      <path id="Path_119" data-name="Path 119" d="M279.525,421.691q0,10.574,5.578,10.574c2.9,1.73,9.671-13.56,8.643-7.678-2.173,21.166-18.764,26.118-19.219,4.8-.138-11.09,4.757-29.88,12.69-39.585C284.259,400.182,278.792,417.5,279.525,421.691Z" fill="#0c697b"/>
      <path id="Path_120" data-name="Path 120" d="M270.5,180.554c-1.7-6.75-2.052-9.587,1.732-13.839,6.642,6.132.449,30.476,13.071,29.592a4.237,4.237,0,0,0,4.414-3.463l3.555.444c-.615,13.5-15.125,19.6-19.509,3.6l-4.122-1.747C273.049,190.229,271.886,187.4,270.5,180.554Z" fill="#ec5b1a"/>
      <path id="Path_121" data-name="Path 121" d="M270.108,195.818l4.122,1.747c-2.334,10.642-11.667,17.441-18.451,8.935-3.216-3.747-2.7-12.521-2.682-17.793h4.03C256.7,197.086,263.55,204.293,270.108,195.818Z" fill="#ec5b1a"/>
      <path id="Path_122" data-name="Path 122" d="M253.1,185.841c0-.766-.567-1.349-1.732-1.732-3.526-1.722-1.178-6.756,1.057-9.225,8.6-10.382,5.322,9.408,4.705,13.823H253.1v-2.866Z" fill="#ec5b1a"/>
      <path id="Path_123" data-name="Path 123" d="M246.484,360.023c-3.563,22.345-10.213-16.2-17.945,15.708l-4.168-1C225.712,361.31,238.106,337.081,246.484,360.023Z" fill="#ec5b1a"/>
      <path id="Path_124" data-name="Path 124" d="M250.024,76.7c-3.281,5.146-9.528,11.611-15.064,13.93,5.387-6.336,15.553-18.289,14.205-20.183.381-4.5-4.628-5.19-7.386-3.156-1.269.812-1.522,1.271-2.222.858C243.834,46.264,263.3,59.483,250.024,76.7Z" fill="#ec5b1a"/>
      <path id="Path_125" data-name="Path 125" d="M224.37,374.735l4.168,1c-.736,2.912-1.471,6.283-2.191,10.145l-4.122-.766C222.685,382.306,223.39,378.842,224.37,374.735Z" fill="#ec5b1a"/>
      <path id="Path_126" data-name="Path 126" d="M301.056,126.549Q268.183,138.273,224,156.54a66.185,66.185,0,0,1,4.214-11.356c24-8.459,49.768-18.39,76.471-27.662C306.634,119.459,301.243,126.6,301.056,126.549Z" fill="#eb9f16"/>
      <path id="Path_127" data-name="Path 127" d="M222.072,386.152c.046-.337.107-.674.153-1.042l4.122.766c-1.846,8.406-2.068,14.788-6.957,17.762-.8-2.079-7.8-29.875-12.492-30.757-4.242,1.982-4.525,3.049-9.608-1.426-4.82-5.042-4.2-4.231-.567-10.773,4.411-9.83,10.955-3.07,16.23,3.462,4.259,5.733,6.326,14.682,8.351,23.724Z" fill="#ec5b1a"/>
      <path id="Path_128" data-name="Path 128" d="M211.321,439.176c-.212-3.82,4.808-10.985,8.061-12.49a3.6,3.6,0,0,1-.2,1.149c-1.676,1.417-5.366,6.322-5.379,8.459,3.9-2.913,6.218,2.46,3.264,5C214.828,443.715,211.111,442.806,211.321,439.176Z" fill="#ec5b1a"/>
      <path id="Path_129" data-name="Path 129" d="M198.732,275.859a8.082,8.082,0,0,0-1.64,3.831c5.361-3.518,5.326,5.891.383,5.578-7.144-.72,1.685-13.871,4.414-14.221C202.262,272.781,199.629,273.675,198.732,275.859Z" fill="#0c697b"/>
      <path id="Path_130" data-name="Path 130" d="M191.146,92.206c-.309-3.571,4.713-10.647,7.494-12.306.713-.178.587.489.383.95-1.7,1.454-5.373,6.31-5.379,8.475,3.728-2.979,6.314,2.44,3.248,5C194.672,96.738,190.925,95.8,191.146,92.206Z" fill="#0c697b"/>
      <path id="Path_131" data-name="Path 131" d="M179.223,234.16c-.3-.308,1.5-5.613,1.847-6.053v.49c.316,1.168-2.1,5.409-.115,6.145a2.09,2.09,0,0,0,.766-.965l-.651-.567v.567C183.59,235.965,178.785,237.889,179.223,234.16Z" fill="#eb9f16"/>
      <path id="Path_132" data-name="Path 132" d="M165.4,164.984a15.817,15.817,0,0,1,1.333-5l-.988-.766v-.184c1.509-.138,1.532,0,1.532,0,.113,1.386-2.48,5.619-.161,6.329a5.862,5.862,0,0,1,1.693-1.532v.766c-1.235.877-1.16,2.083-1.877,2.651h-.2A3.013,3.013,0,0,1,165.4,164.984Z" fill="#0c697b"/>
      <path id="Path_133" data-name="Path 133" d="M166.55,204.185a30.418,30.418,0,0,1-3.08.567l.582-1.916c3.709-.628,8.505-1.41,14.4-2.3l-1.149,1.732Q170.963,203.212,166.55,204.185Z" fill="#0c697b"/>
      <path id="Path_134" data-name="Path 134" d="M161.937,248.566a21.611,21.611,0,0,0-.965-5.379,17.691,17.691,0,0,1,3.08-3.065l.184.184c.481,4.154,1.069,5.645-.015,8.9l-2.314-.276A2.814,2.814,0,0,0,161.937,248.566Z" fill="#ec5b1a"/>
      <path id="Path_135" data-name="Path 135" d="M228.8,120.6q-62.64,23.446-69.943,27.661a53.057,53.057,0,0,1,4.23-11.524c87.809-32.067,130.942-49.817,131.824-48.029C290.72,103.338,277.337,100.235,228.8,120.6Z" fill="#0c697b"/>
      <path id="Path_136" data-name="Path 136" d="M157.907,258.757l.184-.782c1.506-.877-1.189,3.848-.766,4.613-.111,2.341,1.459,2.113,1.731.4C158.856,269.973,154.168,264.771,157.907,258.757Z" fill="#eb9f16"/>
      <path id="Path_137" data-name="Path 137" d="M150.014,235.877c3.709-.751,8.521-1.594,14.421-2.5l-.965,1.747a120.437,120.437,0,0,0-14.022,2.682Z" fill="#0c697b"/>
      <path id="Path_138" data-name="Path 138" d="M149.447,418.427c6.4-7.543,18.516-21.9,16.9-24.015.4-7.064-7.811-5.23-10.941-2.5l-.582-.383c-.046-12.7,17.554-20.359,18.069-4.429C172.611,398.28,160.038,414.324,149.447,418.427Z" fill="#eb9f16"/>
      <path id="Path_139" data-name="Path 139" d="M156.941,176.125c-2.054.521-3.908,1.027-5.563,1.548l.95-1.916q9.609-2.138,24.98-5.394L175.76,172.1Q164.428,174.393,156.941,176.125Z" fill="#ec5b1a"/>
      <path id="Path_140" data-name="Path 140" d="M151.007,162.3l.747-1.708c.665,1.242,1.284,7.283,3.843,5.154-.256-.778-1.156-2.791-1.357-3.629.4-1.266.64-1.906.778-1.906-.37,1.738,1.27,3.479,1.144,5.535.046,2.915-2.862,2.008-3.629,0-.1,1.645-1.885,3.992-3.629,2.394-.543-.358-.407-4.16-.96-4.483l.381-1.921c1.05.816.28,8.235,3.629,4.59A7.089,7.089,0,0,0,151.007,162.3Z" fill="#0c697b"/>
      <path id="Path_141" data-name="Path 141" d="M145.9,315.888c-4.4-11.668-3.27-2.034-8.751-7.11-2.689-2.7-2.275-2.372-.383-5.855,6.1-8.562,12.541,8.256,13.072,14.513,1.825-2.594,2.234-19.358,9.027-19.8,3.093.4,5.371,4.7,3.938,7.6-2.475,6.108-5.865-12.464-10.083,11.418-1.006,4.366-1.295,7.477-3.647,9.225C147.793,323.59,148.414,320.947,145.9,315.888Z" fill="#ec5b1a"/>
      <path id="Path_142" data-name="Path 142" d="M147.516,160.371a10.5,10.5,0,0,0-2.3.582l.582-1.548c2.437-.628,5.686-1.333,9.793-2.115l-.766,1.548C152.292,159.266,149.781,159.785,147.516,160.371Z" fill="#ec5b1a"/>
      <path id="Path_143" data-name="Path 143" d="M143.685,234.543a20.2,20.2,0,0,1-2.5,3.08,36.6,36.6,0,0,0-3.847-3.663,32.284,32.284,0,0,1,2.682-3.065A25.021,25.021,0,0,1,143.685,234.543Z" fill="#ec5b1a"/>
      <path id="Path_144" data-name="Path 144" d="M169.14,185.351a29.858,29.858,0,0,0-5.287,5.762,16.32,16.32,0,0,0,6.161.782l.184.184C189.178,192.206,181.708,175.929,169.14,185.351Zm-27.017,1.823-1.943-.5c3.114-5.973.495-15.567.617-22.348a16.964,16.964,0,0,1,2.831-3.208h-.383c2.5,8.881-4.724,29.811,8.131,30.651,4.057.889,6.325-2.938,6.531-6.8.751-.644,1.532-1.287,2.3-1.916,0,.123.061.184.942.184v.383a4.271,4.271,0,0,0,.789,6.728c4.743-11.068,25.678-20.538,22.1-1.148-4.315,8.6-18.541,9.427-25.747,4.106-1.388,1.255-6.974,3.17-7.869,2.8v.508c-5.567-.749-7.573-4.083-8.117-9.442h-.181Z" fill="#0c697b"/>
      <path id="Path_145" data-name="Path 145" d="M142.52,210.713c-.383-.889-1.41-1.655-3.065-2.3C138.03,211.279,140.411,211.811,142.52,210.713Zm-3.976-.582c-.069-.664,2.48-5.937,2.682-4.8l-.766,1.165C148.691,209.363,138.823,217.841,138.544,210.131Z" fill="#ec5b1a"/>
      <path id="Path_146" data-name="Path 146" d="M136.865,234.406c.153.169.322.337.475.521a9.648,9.648,0,0,1-2.5,2.881c-1.287-1.149-2.575-2.237-3.847-3.264a30.491,30.491,0,0,1,2.7-3.08A33.106,33.106,0,0,1,136.865,234.406Z" fill="#ec5b1a"/>
      <path id="Path_147" data-name="Path 147" d="M130.23,264.764c9.762-7.212,5.1-.021,11.907-4.429-1.148,1.444.506,2.211,1.916,1.931a1.13,1.13,0,0,0-.184-.766l1.149-1.916c.876,3.041-4.6,6.945-4.414,2.3-1.022,1.363-2.419,2.659-3.831,1.349-4.463-1.062-9.081,5.678-14.421,4.214A24.275,24.275,0,0,0,130.23,264.764Z" fill="#0c697b"/>
      <path id="Path_148" data-name="Path 148" d="M129.464,182.47c-.151-.982,1.036-3.731,1.732-5.961,1.707-1.166-2.458,5.918,0,6.344.576-.12.772-.981.965-1.532C133.212,183.757,129.526,186.477,129.464,182.47Z" fill="#ec5b1a"/>
      <path id="Path_149" data-name="Path 149" d="M127.349,167.053c-.113-1.27,1.31-5.807,2.682-8.842,1.239.15-1.8,5.359-1.333,6.727-.128,3.287,1.948,3.319,2.3.583.6,1.111-.273,4.174-1.333,4.8C128.113,170.4,127.351,169.336,127.349,167.053Z" fill="#eb9f16"/>
      <path id="Path_150" data-name="Path 150" d="M126,218.79c-.142-.79,1.03-3.678,1.732-5.961.385-.362.166-.339,1.234-.184v.475c-2.433.468-2.763,9.1,0,4.705C129.286,220.479,126.167,222.955,126,218.79Z" fill="#eb9f16"/>
      <path id="Path_151" data-name="Path 151" d="M124.851,102.351c4.62-8.946,42.422-4.493,40.166.566-.727,5.139-12.71,19.875-17.3,22.666-.972,1.045-16.9,6.862-27.677,8.459.912-2.078,30.419-16.749,30.757-18.635,2.268-2.457-21.932-3.174-29.409-2.3C116.276,113.268,121.024,110.059,124.851,102.351Z" fill="#ec5b1a"/>
      <path id="Path_152" data-name="Path 152" d="M119.387,241.761c-.141-.966,1.057-4.036,1.916-6.145,1.144.438-2.725,5.874,0,6.528.409-.154.609-1.054.782-1.533C123.12,242.829,119.66,246.063,119.387,241.761Z" fill="#ec5b1a"/>
      <path id="Path_153" data-name="Path 153" d="M344.088,174.976c-8.081-.078-.563,7.341,5.2,20.168q17.079-5.356,21.9-7.862C371.374,182.713,348.548,174.26,344.088,174.976ZM230.531,302.341c-47.789,72.32-164.526,124.134-116.639-14.208,3.725-9.274,4.986-5.211,3.081,1.336q-7.884,27.1-7.877,40.365c8.6,60.594,116.679-28.394,121.434-53.8,2.135-10.414-29.265-97.482-33.239-105.3-.316-1.048,2.2-26.3,7.109-20.951,12.1,15.361,26.5,51.456,30.927,72.626,7.924,42.425,13.758,108.384,58.219,123.181.956-43.221,21.249-39.907,58.618-57.269-2.3-1.244-102.151,2.881-99.857-2.266,4.026-42.836,44.022-61.334,87.75-86.113-22.19-32.985,3.336-65.208,39.967-36.319,22.871,14.038,18.6,22.827,11.524,40.35q-14.414,4.23-34.772,10.574c1.432,10.478-2.909,18.737-7.111,3.065-17.822,6.476-59.859,31.717-72.824,46.113,34.393,2.541,125.233-.613,159.67-2.115,6.422-.506.2,6.242-3.845,19.417a6.3,6.3,0,0,1-4.032,3.831q-127.6,40.549-127.58,49.959,0,7.908,39,25.378a3.5,3.5,0,0,1,1.916,3.448l-1.916,17.1c-3.957,7.02-22.865-.644-34.005-3.262-48.861-16.149-63.212-47.353-71.292-98.188Q234.762,295.82,230.531,302.341Z" fill="#0c697b"/>
      <path id="Path_154" data-name="Path 154" d="M118.514,198.442a239.12,239.12,0,0,0-5.029-40.23l2.314-3.486c1.268,2.5,5.121,9.883,4.844,9.672l-.2.386a10.544,10.544,0,0,1-2.514-2.129h-.37l-.2.2c2.548,21.93,6.672,26.126,1.357,39.644h-.2C118.075,202.252,118.573,198.853,118.514,198.442Z" fill="#0c697b"/>
      <path id="Path_155" data-name="Path 155" d="M131.307,225.486c4.734.373,7.11-2.359,7.392-6.6l2.526-1.751.186.387c-3.583,7.075,4.454,9.838,9.718,6.8,3.671-5.542.526-10.456.789-22.347l2.712-4.076h.387v-1.866q.606,11.694.614,25.286c.089,5.738,8.621,4.372,13.178,3.331v-.217c-12.632-7.6,6.444-26.106,12.353-10.644l-.6.633c-19.411-9.871-14.8,15.2,4.673,5.214l.178.217-2.021,4.381c-9.714,2.332-23.358,10.867-29.8,2.1-2.525,5.176-12.993,5.162-15.6.2-3.1,6.681-27.909,2.4-33.6,3.548q-.1-2.373-.194-4.6Z" fill="#eb9f16"/>
      <path id="Path_156" data-name="Path 156" d="M107.944,225.486q.1,2.225.2,4.6h-3.465l-.3-4.6Z" fill="#ec5b1a"/>
      <path id="Path_157" data-name="Path 157" d="M102.913,224.736c-.206-.7,1.654-4.69,1.532-5.394l2.879-3.065.186-.2c-.019,2.056.127,7.329.229,9.409h-3.21S104.5,224.935,102.913,224.736Z" fill="#ec5b1a"/>
      <path id="Path_158" data-name="Path 158" d="M106.6,262.986c-.146,1.712,1.031,2.385,1.533.966.1-.43.376-1.133.383,0,.092,2.669-2.864,4.01-2.881.383-.148-.8,1.022-3.681,1.732-5.961C108.888,257.427,106.171,262.2,106.6,262.986Z" fill="#ec5b1a"/>
      <path id="Path_159" data-name="Path 159" d="M107.365,184.492a36.582,36.582,0,0,1-3.463-11.065l-.766-.95,2.5-4.414c.807,1.763,4.111,6.885,4.942,8.643v.184c-.4.171-2.418-1.309-2.827-1.333,1.266,6.174,5.461,9.619,3.816,15.478l-1.318-.107A51.177,51.177,0,0,0,107.365,184.492Z" fill="#0c697b"/>
      <path id="Path_160" data-name="Path 160" d="M104.484,161.153c-.181-.392,1.093-4.219,1.494-4.812v.383c.249.942-1.674,4.135-.161,4.812a1.225,1.225,0,0,0,.582-.782l1.111-.567v.567c-1.387.509-.777,2.034-1.693,1.9C104.933,162.84,104.484,162.446,104.484,161.153Z" fill="#ec5b1a"/>
      <path id="Path_161" data-name="Path 161" d="M97.174,156.724l-.766,1.349a92.973,92.973,0,0,0-9.609,2.115l.582-1.532Q91.036,157.688,97.174,156.724Z" fill="#ec5b1a"/>
      <path id="Path_162" data-name="Path 162" d="M97.3,207.1c-2.864-1.336-.988-5.943.582-8.95.046,0,.077.061-1.1.169v.49c2.385.329-1.7,5.338.789,6.145a2.252,2.252,0,0,0,.766-.95l-.023-.582a3.7,3.7,0,0,1-.942,3.678H97.3Z" fill="#ec5b1a"/>
      <path id="Path_163" data-name="Path 163" d="M93.144,174.01a2.6,2.6,0,0,1-.582-.95,37.386,37.386,0,0,1,1.931-4.414c4.08,6.28,2.577,31.737,15.754,22.282l1.318.107c-1.719,10.451-14.336,7.014-14.957-2.421-.077.383-.169.751-.245,1.1l-.9-.138C96.171,184.167,94.656,178.932,93.144,174.01Z" fill="#0c697b"/>
      <path id="Path_164" data-name="Path 164" d="M95.841,242.237c.245,0,.506-.261.766-.782l-1.356-.582v.582c2.215.76,1.519,2.524.207,2.422-2.584,1.348-.742-8.93,1.326-8.076v.475C95.476,236.845,94.189,241.808,95.841,242.237Z" fill="#0c697b"/>
      <path id="Path_165" data-name="Path 165" d="M95.933,145.291a20.926,20.926,0,0,1-7.2,6.62c2.4-3.02,7.414-8.819,6.727-9.594.2-2.982-3.27-2.333-4.428-.965l-.184-.2C92.877,130.41,102.411,137.5,95.933,145.291Z" fill="#ec5b1a"/>
      <path id="Path_166" data-name="Path 166" d="M90.255,165.183a13.618,13.618,0,0,0-.383-2.314l.383-1.716c1.182.738-.261,7.851,3.463,4.6a5.275,5.275,0,0,0-.766-4.214l.766-1.548c.321,1.368,1.541,7.017,3.847,5-.637-1.553-1.876-3.674-.782-5.379-.184,1.668,1.456,3.278,1.364,5.379.08,2.665-3.145,2.372-3.663,0C94.308,167.993,90.2,169.4,90.255,165.183Z" fill="#0c697b"/>
      <path id="Path_167" data-name="Path 167" d="M171.147,247.125c.988,3.639,7.139,3.156,10.007,2.682C181.1,244.765,172.021,240.328,171.147,247.125Zm-1.77.752a6.488,6.488,0,0,1,.965-1.763v-.353c10.29-12.636,19.525,12.092,11.723,19.63-15.865,18.347-71.416,13.375-93.189,6.9-21.7-9.73,6.389-.4,17-.524,20.558.368,69.026,8,76.394-15.738C176.534,257.33,166.7,255.852,169.377,247.877Z" fill="#ec5b1a"/>
      <path id="Path_168" data-name="Path 168" d="M79.888,162.287c-1.1,2.417-.609,5.825,1.571,2.7v.582c-.465,2.4-2.739,4.226-2.92.383a22.4,22.4,0,0,1,1.732-5.961c.123,0,.2.061,1.188.2v.383C80.47,160.693,80.271,161.275,79.888,162.287Z" fill="#eb9f16"/>
      <path id="Path_169" data-name="Path 169" d="M84.5,259.339a5.369,5.369,0,0,0,1.349,1.716C85.606,259.755,85.547,259.437,84.5,259.339Zm-9.424,2.927c-.2-.087-4.327-.981-4.345-1.211v-.322c4.6-.115,9.819.749,13.792-1.533v-.061c.157-.08,1.449-1.4,1.509.061h.2c1.074-.856.948,3.691-.582,1.533-.163-.053-1.616.307-2.115-.828C81.5,262.146,79.312,261.778,75.076,262.266Z" fill="#0c697b"/>
      <path id="Path_170" data-name="Path 170" d="M70.279,325.818c-.274-5.962,7.841-18.059,13.256-20.75.182,3.4-9.7,11.293-9.026,15.938,6.205-5.041,10.487,4.105,5.47,8.368C76.317,333.268,69.886,332.005,70.279,325.818Z" fill="#0c697b"/>
      <path id="Path_171" data-name="Path 171" d="M76.493,173.259a12.035,12.035,0,0,0-1.165-.965v.766C75.972,173.321,76.355,173.382,76.493,173.259Zm-2.3-.781c0,.261.368.46,1.134.582C75.519,172.01,74.861,171.391,74.194,172.478Zm-4.681,6.681c1.052-.9,4.627-3.7,5.563-5.379-1.476-.307-1.362-1.128-.383-2.314-.123-.107-.261,0-.368.383h-.2c.21-2.886,3.64.49,2.881,1.931-.647.306-.833.181-1.548,0a18.8,18.8,0,0,1-7.678,6.728Z" fill="#0c697b"/>
      <path id="Path_172" data-name="Path 172" d="M74.125,272.4c.029,1.36.445,1.821,1.2.766v1.149c-2.721,1.136-2.044-2.107-1-4.613l-.529-.368v-.2a4.816,4.816,0,0,1,1.532,0v.383A5.19,5.19,0,0,0,74.125,272.4Z" fill="#eb9f16"/>
      <path id="Path_173" data-name="Path 173" d="M73.359,236.076c.1-.231.66-1.649.766-1.916,3.586-.782,8.321-1.594,14.221-2.5l-.965,1.716C81.765,234.26,77.843,234.933,73.359,236.076Z" fill="#eb9f16"/>
      <path id="Path_174" data-name="Path 174" d="M70.08,167.482c0,.383.383.766,1.165,1.165C71.541,167.418,70.772,167.016,70.08,167.482Zm0,1.532c-1.8-.877,1.346-4.122,1.931-1.916-.138.383-.337.965-.582,1.732.84.606.655,1.188.4,1.931a2.008,2.008,0,0,0-.782-1.165,9.852,9.852,0,0,1-6.712,5,16.17,16.17,0,0,0,6.528-5A8.636,8.636,0,0,0,70.08,169.014Z" fill="#ec5b1a"/>
      <path id="Path_175" data-name="Path 175" d="M69.286,200.9c-3.6-1.072-5.822-12.321-4.293-17.769,1.038,4.623,1.062,11.193,2.759,12.582,2.583,3.509,5.722,2.337,6.486-3.149,1.792-6.4,2.385-17.79,8.055-17.675.7,5.214-1.978,11.344-.2,16.3,2.433,5.688,10.89,4.169,13.569-1.567l.924.141c-.572,12.624-16.9,13.728-17.441,1.237,0,0,.784-10.4.784-10.4V180C75.476,182.906,78.439,205.264,69.286,200.9Z" fill="#0c697b"/>
      <path id="Path_176" data-name="Path 176" d="M71.88,213.886a1.546,1.546,0,0,0-.782.674c0,.123.4.322,1.165.582C72.253,214.665,72.359,213.777,71.88,213.886Zm.2,1.256c.628.245,1.011.322,1.134.184-.245-.261-.552-.567-.95-.95v.184A.742.742,0,0,0,72.08,215.142ZM66.632,220.9c-1.326,1.1-1.589,1.3-2.7,1.532,2.235-1.5,5.661-4.006,7.31-6.728a3.269,3.269,0,0,0-.965-.184c-.494-.645.024-1.138.582-2.115-.2-.265-.354.417-.582.582.191-2.879,3.647.371,2.881,1.916C70.3,215.941,70.009,219.189,66.632,220.9Z" fill="#0c697b"/>
      <path id="Path_177" data-name="Path 177" d="M73.65,251.554c9.09,2.4,2.108-6.052-2.222-9.134-.754.713-2.06,1.5-2.1,2.7m69.036,4.889c4.459.446,7.014-2.683,9.229-5.892l2.554-.987.188.2c-5.176,5.741-.165,9.339,3.746,4.231.463-1.4.952-4.624,3.133-5.218h-.178c-2.179,3.817,1.524,10.44,4.972,6.374l2.406.287c-1.664,4.64-6.827,8.259-10.167,2.534h.523c-2.315,2.813-8.811,5.285-9.6,0h-.408c-4.034,5.792-28.531,2.069-34.391,3.066-2.305.038-3.309-2.005-4.224-3.63-2.328,6-15.685,2.921-20.434,3.63a5.86,5.86,0,0,1-5.367-3.066h-.433c-1.97,10.422-13.569,2.575-12.613-5.277-10.209,7.689,4.959,20.144.556,29.8h-.468c-4.573-15.816-12.669-26.566,4-38.312h.573c13.072,12.585,6.75,13,27.013,12.258,9.933-.582,4.125-14.781,5.1-21.453h3.3C106.979,258.889,106.8,248.069,138.364,250.006Z" fill="#ec5b1a"/>
      <path id="Path_178" data-name="Path 178" d="M66.62,237.437c-6.514.471-8.652-17.15-5.119-21.65-.981,5.646-1.378,16.736,5.349,17.363,3.278-1.031,6.528-12.589,8.951-14.6,7.431-9.307,9.266,6.205,16.926,6.936h12.286l.3,4.6c-1.266-.1-13.111.238-13.961-.212-9.488-2.154-9.271-19.627-19.222.424C71.059,232.773,69.542,237.379,66.62,237.437Z" fill="#eb9f16"/>
      <path id="Path_179" data-name="Path 179" d="M125.9,194.438a23.174,23.174,0,0,0,1.612-3.831c3.787-.85,8.608-1.505,10.6-5.119l1.856.506a10.549,10.549,0,0,1-4.878,6.145v.184c19.7,15.913-62.621,37.346-73.74,2.7,0-.123.06-.123.181,0v-.184c24.144,32.577,99.658.06,64.537,0,0-.123-.058-.2-.173-.2Z" fill="#0c697b"/>
    </g>
  </g>
</svg>
