<?xml version="1.0" encoding="utf-8"?>
<!-- Generator: Adobe Illustrator 24.1.1, SVG Export Plug-In . SVG Version: 6.00 Build 0)  -->
<svg version="1.1" xmlns="http://www.w3.org/2000/svg" xmlns:xlink="http://www.w3.org/1999/xlink" x="0px" y="0px"
	 viewBox="0 0 2048 2048" style="enable-background:new 0 0 2048 2048;" xml:space="preserve">
<style type="text/css">
	.st0{fill:#60B7FF;}
	.st1{fill:#784132;}
	.st2{fill:#F2B9A3;}
	.st3{fill:#F4BAA6;}
	.st4{fill:#C4E2FF;}
	.st5{fill:#AB5034;}
</style>
<g id="Layer_1">
	<g>
		<g>
			<path class="st0" d="M1454.3,1260.9c102.5,0,185.6,83.1,185.6,185.6V1792H408.1v-345.5c0-102.5,83.1-185.6,185.6-185.6
				L1454.3,1260.9L1454.3,1260.9z"/>
			<g>
				<path class="st1" d="M1126.4,1191.9c18.3,0,36.5-2.9,53.9-8.6c25.5-8.4,50.8-19.5,77.6-20.9c23.2-1.3,46.1,4.7,69.2,5.5
					c23.9,0.8,41.3-0.8,63.2-10.8v-532c0-203.8-165.2-369.1-369.1-369.1c-203.8,0-369.1,165.2-369.1,369.1v532v0
					c21.8,9.9,39.2,11.6,63.2,10.8c23.2-0.8,46.1-6.8,69.2-5.5c26.8,1.5,52.1,12.6,77.6,20.9c17.4,5.7,35.6,8.6,53.9,8.6
					L1126.4,1191.9L1126.4,1191.9z"/>
				<path class="st2" d="M1198.8,756.9h104.4c12.8-5,27.1-7,41.9-5.1c41,5,73.1,39.3,75.5,80.6c2.9,50.1-36.8,91.7-86.3,91.7
					c-13.1,0-25.6-2.9-36.8-8.2h-98.8L1198.8,756.9L1198.8,756.9z"/>
				<path class="st2" d="M899.6,756.9H744.8c-9.7-3.7-20.2-5.8-31.2-5.8c-49.7,0-89.6,42-86.2,92.4c2.8,42.3,36.7,76.7,79,80.2
					c15.8,1.3,30.8-1.7,44-7.9h149.2L899.6,756.9L899.6,756.9z"/>
				<path class="st3" d="M1303.2,698.9V860c0,77.1-31.3,146.9-81.8,197.4s-120.3,81.8-197.5,81.8c-154.2,0-279.2-125-279.2-279.2
					V698.9c145.8-78,159.8-217.5,160.6-259.2C915.7,732.6,1303.2,698.9,1303.2,698.9"/>
				<g>
					<circle class="st1" cx="909.6" cy="812.7" r="30"/>
					<circle class="st1" cx="1138.4" cy="812.7" r="30.1"/>
					<path class="st1" d="M1023.8,1039.4c-31.1,0-60.3-12.1-82.2-34c-1.9-1.9-2.9-4.4-2.9-7s1-5.2,2.9-7s4.4-2.9,7-2.9s5.2,1,7,2.9
						c18.2,18.2,42.3,28.2,68.1,28.2s49.9-10,68.1-28.2c1.9-1.9,4.4-2.9,7.1-2.9s5.2,1,7.1,2.9s2.9,4.4,2.9,7s-1,5.2-2.9,7
						C1084,1027.3,1054.8,1039.4,1023.8,1039.4z"/>
				</g>
			</g>
			<polygon class="st2" points="1142,1260.5 1141.9,1260.7 1024,1426.8 906,1260.7 905.9,1260.5 911.4,1188.8 917.1,1114 
				922.3,1045.4 1125.7,1045.4 1131.1,1116.3 1136.6,1188.8 			"/>
			<g>
				<polygon class="st4" points="1141.9,1260.7 1024,1426.8 1107.6,1508.8 1277.3,1260.9 				"/>
				<polygon class="st4" points="905.9,1260.5 1024,1426.8 940.3,1508.8 770.6,1260.9 				"/>
			</g>
		</g>
	</g>
</g>
<g id="Layer_2">
	<g>
		<path class="st5" d="M1003.9,76.1C483.2,76.1,61.1,498.3,61.1,1019s422.1,942.9,942.9,942.9s942.9-422.1,942.9-942.9
			S1524.7,76.1,1003.9,76.1z M184.1,1019c0-452,367.9-819.9,819.9-819.9c178.5,0,343.7,57.1,478.3,153.9
			c30.7,22.1,34.1,66.6,7.4,93.3L431.3,1504.7c-26.7,26.7-71.2,23.3-93.3-7.4C241.1,1362.7,184.1,1197.5,184.1,1019z M1003.9,1838.9
			c-178.5,0-343.7-57.1-478.3-153.9c-30.7-22.1-34.1-66.6-7.4-93.3L1576.6,533.3c26.7-26.7,71.2-23.3,93.3,7.4
			c96.9,134.6,153.9,299.8,153.9,478.3C1823.8,1471,1455.9,1838.9,1003.9,1838.9z"/>
		<path d="M1977.6,1019c0-80.7-13.9-175.6-32.8-251.9c-43.5-163.6-129.5-313.6-252.4-436.5C1508.5,146.7,1264,45.4,1003.9,45.4
			S499.4,146.7,315.5,330.6C131.6,514.4,30.3,758.9,30.3,1019s101.3,504.6,285.2,688.4c183.9,183.9,428.4,285.2,688.4,285.2
			c236.5,0,464.5-85.9,642.1-241.8c12.8-11.2,14-30.6,2.8-43.4c-0.1-0.1-0.2-0.2-0.4-0.4c-11.2-12.4-30.4-13.5-43-2.5
			c-166.4,146.1-380,226.5-601.5,226.5c-502.9,0-912.1-409.2-912.1-912.1S501,106.9,1003.9,106.9s912.1,409.2,912.1,912.1
			c0,221.5-80.4,435.1-226.5,601.5c-11.1,12.6-9.9,31.8,2.5,43c0.1,0.1,0.2,0.2,0.4,0.4c12.8,11.2,32.2,9.9,43.4-2.8
			c99.7-113.6,170.7-247.8,209-391.6v2.2C1963.7,1195.5,1977.6,1098.7,1977.6,1019z"/>
		<path d="M1823.7,1019c0-67.9-11.7-147.8-27.6-212.1c-36.6-137.8-109-264-212.5-367.5c-154.8-154.8-360.7-240.1-579.6-240.1
			s-424.8,85.3-579.6,240.1C269.5,594.2,184.2,800,184.2,1019s85.3,424.8,240.1,579.6c154.8,154.8,360.7,240.1,579.6,240.1
			c199.1,0,391.1-72.3,540.6-203.6c10.7-9.4,11.8-25.8,2.4-36.5c-0.1-0.1-0.2-0.2-0.3-0.3c-9.5-10.4-25.6-11.4-36.2-2.1
			c-140.1,123-319.9,190.7-506.4,190.7c-423.4,0-767.9-344.5-767.9-767.9s344.5-767.9,767.9-767.9s767.9,344.5,767.9,767.9
			c0,186.5-67.7,366.4-190.7,506.4c-9.3,10.6-8.4,26.8,2.1,36.2c0.1,0.1,0.2,0.2,0.3,0.3c10.7,9.4,27.1,8.4,36.5-2.4
			c83.9-95.6,143.7-208.6,175.9-329.7v1.8C1812,1167.6,1823.7,1086.1,1823.7,1019z"/>
		<path d="M1480.6,554"/>
	</g>
</g>
</svg>
